<svg xmlns="http://www.w3.org/2000/svg" viewBox="0 0 512 512">
  <defs>
    <linearGradient id="g" x1="0%" y1="0%" x2="100%" y2="100%">
      <stop offset="0%" stop-color="#0f766e"/>
      <stop offset="100%" stop-color="#0d5c56"/>
    </linearGradient>
  </defs>
  <rect width="512" height="512" rx="96" fill="url(#g)"/>
  <!-- Vault door shape -->
  <ellipse cx="256" cy="280" rx="140" ry="130" fill="none" stroke="#fff" stroke-width="20"/>
  <ellipse cx="256" cy="280" rx="110" ry="100" fill="none" stroke="rgba(255,255,255,0.3)" stroke-width="4"/>
  <!-- Handle -->
  <circle cx="256" cy="280" r="40" fill="none" stroke="#fff" stroke-width="14"/>
  <circle cx="256" cy="280" r="12" fill="#fff"/>
  <!-- App grid squares inside -->
  <rect x="200" y="224" width="24" height="24" rx="4" fill="rgba(255,255,255,0.6)"/>
  <rect x="288" y="224" width="24" height="24" rx="4" fill="rgba(255,255,255,0.6)"/>
  <rect x="200" y="312" width="24" height="24" rx="4" fill="rgba(255,255,255,0.6)"/>
  <rect x="288" y="312" width="24" height="24" rx="4" fill="rgba(255,255,255,0.6)"/>
  <!-- Lock indicator -->
  <path d="M256 144 l0 40" stroke="#fff" stroke-width="12" stroke-linecap="round"/>
  <path d="M232 200 l0 -24 c0 -13 11 -24 24 -24 c13 0 24 11 24 24 l0 24" fill="none" stroke="#fff" stroke-width="10" stroke-linecap="round" stroke-linejoin="round"/>
</svg>
